<svg height="512" viewBox="0 0 512 512" width="512" xmlns="http://www.w3.org/2000/svg"><g id="filled_outline" data-name="filled outline"><path d="m462.774 280.094a8 8 0 0 0 -9.127 6.685 200.048 200.048 0 0 1 -197.647 169.221c-103.414 0-188.747-78.895-198.972-179.659l9.315 9.316a8 8 0 1 0 11.314-11.314l-24-24a8 8 0 0 0 -11.314 0l-24 24a8 8 0 0 0 11.314 11.314l11.137-11.137a216.02 216.02 0 0 0 428.666 14.7 8 8 0 0 0 -6.686-9.126z" fill="#2cbff4"/><path d="m493.657 226.343a8 8 0 0 0 -11.314 0l-11.137 11.137a216.02 216.02 0 0 0 -428.666-14.7 8 8 0 0 0 15.813 2.442 200.048 200.048 0 0 1 197.647-169.222c103.415 0 188.748 78.9 198.972 179.659l-9.315-9.316a8 8 0 0 0 -11.314 11.314l24 24a8 8 0 0 0 11.314 0l24-24a8 8 0 0 0 0-11.314z" fill="#c4f8ff"/><path d="m168 208h128v128h-128z" fill="#ea9d2d"/><path d="m216 208h32v56h-32z" fill="#e82f3e"/><path d="m296 208 48-32v120l-48 40z" fill="#d18d28"/><path d="m168 208 48-32h128l-48 32z" fill="#f7ba61"/><path d="m224 312h-16a8 8 0 0 1 0-16h16a8 8 0 0 1 0 16z" fill="#d18d28"/><path d="m264 312h-8a8 8 0 0 1 0-16h8a8 8 0 0 1 0 16z" fill="#d18d28"/><circle cx="256" cy="384" fill="#ea9d2d" r="8"/><circle cx="224" cy="384" fill="#d18d28" r="8"/><circle cx="288" cy="384" fill="#d18d28" r="8"/><path d="m29.657 285.657 11.143-11.138a216.019 216.019 0 0 0 428.665 14.7 8 8 0 0 0 -15.813-2.442 200.019 200.019 0 0 1 -396.62-10.432l9.311 9.312a8 8 0 1 0 11.314-11.314l-24-24a8 8 0 0 0 -11.314 0l-24 24a8 8 0 0 0 11.314 11.314z"/><path d="m482.343 226.343-11.14 11.14a216.018 216.018 0 0 0 -428.663-14.7 8 8 0 0 0 15.813 2.442 200.023 200.023 0 0 1 396.622 10.441l-9.318-9.319a8 8 0 0 0 -11.314 11.314l24 24a8 8 0 0 0 11.314 0l24-24a8 8 0 0 0 -11.314-11.314z"/><path d="m301.11 342.154.012-.008s48.251-40.221 48.356-40.326a7.972 7.972 0 0 0 2.522-5.82s-.19-121.812-.343-122.318a8 8 0 0 0 -7.657-5.682h-128a7.993 7.993 0 0 0 -4.438 1.344l-48 32a7.978 7.978 0 0 0 -3.491 5.794c-.022.128-.036.276-.047.43 0 .1-.015.2-.016.3 0 .049-.008.084-.008.136v127.996a8 8 0 0 0 8 8h128a7.966 7.966 0 0 0 5.11-1.846zm34.89-49.9-32 26.666v-106.639l32-21.333zm-48 35.746h-112v-112h32v48a8 8 0 0 0 8 8h32a8 8 0 0 0 8-8v-48h32zm-64-72v-40h16v40zm-29.578-56 24-16h99.156l-24 16z"/><path d="m224 296h-16a8 8 0 0 0 0 16h16a8 8 0 0 0 0-16z"/><path d="m248 304a8 8 0 0 0 8 8h8a8 8 0 0 0 0-16h-8a8 8 0 0 0 -8 8z"/><circle cx="256" cy="384" r="8"/><circle cx="224" cy="384" r="8"/><circle cx="288" cy="384" r="8"/></g></svg>